<svg width="20" height="20" viewBox="0 0 20 20" fill="none" xmlns="http://www.w3.org/2000/svg">
<path d="M10 8.35C10.9113 8.35 11.65 9.08873 11.65 10C11.65 10.9113 10.9113 11.65 10 11.65C9.08873 11.65 8.35 10.9113 8.35 10C8.35 9.08873 9.08873 8.35 10 8.35Z" fill="white"/>
<path fill-rule="evenodd" clip-rule="evenodd" d="M1.46447 1.46447C0 2.92893 0 5.28595 0 10C0 14.714 0 17.0711 1.46447 18.5355C2.92893 20 5.28595 20 10 20C14.714 20 17.0711 20 18.5355 18.5355C20 17.0711 20 14.714 20 10C20 5.28595 20 2.92893 18.5355 1.46447C17.0711 0 14.714 0 10 0C5.28595 0 2.92893 0 1.46447 1.46447ZM4.75 10C4.75 7.1005 7.1005 4.75 10 4.75C12.8995 4.75 15.25 7.1005 15.25 10C15.25 10.6327 15.1384 11.2376 14.9345 11.7973C14.8991 11.8944 14.8295 11.9989 14.7183 12.1015L14.6377 12.1758C14.3369 12.4533 13.8853 12.4888 13.5448 12.2618C13.2981 12.0974 13.15 11.8206 13.15 11.5241V10C13.15 8.2603 11.7397 6.85 10 6.85C8.2603 6.85 6.85 8.2603 6.85 10C6.85 11.7397 8.2603 13.15 10 13.15C10.7017 13.15 11.3499 12.9205 11.8735 12.5325C12.0557 12.9233 12.3431 13.2635 12.7127 13.5099C13.6294 14.121 14.8451 14.0252 15.6548 13.2783L15.7354 13.204C15.9855 12.9732 16.211 12.6756 16.3439 12.3108C16.6069 11.5889 16.75 10.8103 16.75 10C16.75 6.27208 13.7279 3.25 10 3.25C6.27208 3.25 3.25 6.27208 3.25 10C3.25 13.7279 6.27208 16.75 10 16.75C10.4142 16.75 10.75 16.4142 10.75 16C10.75 15.5858 10.4142 15.25 10 15.25C7.1005 15.25 4.75 12.8995 4.75 10Z" fill="white"/>
</svg>
