<svg width="18" height="19" viewBox="0 0 18 19" fill="none" xmlns="http://www.w3.org/2000/svg">
<path fill-rule="evenodd" clip-rule="evenodd" d="M1.2653 1.7653C0 3.0306 0 5.06707 0 9.14V9.86C0 13.9329 0 15.9694 1.2653 17.2347C2.5306 18.5 4.56707 18.5 8.64 18.5H9.36C13.4329 18.5 15.4694 18.5 16.7347 17.2347C18 15.9694 18 13.9329 18 9.86V9.14C18 5.06707 18 3.0306 16.7347 1.7653C15.4694 0.5 13.4329 0.5 9.36 0.5H8.64C4.56707 0.5 2.5306 0.5 1.2653 1.7653ZM3.03754 5.97504C3.13502 10.655 5.47501 13.4675 9.57751 13.4675H9.81005V10.79C11.3176 10.94 12.4575 12.0425 12.915 13.4675H15.045C14.46 11.3375 12.9225 10.16 11.9625 9.71002C12.9225 9.15503 14.2725 7.80503 14.595 5.97504H12.6599C12.2399 7.46004 10.995 8.81002 9.81005 8.93752V5.97504H7.87498V11.165C6.67499 10.865 5.16002 9.41004 5.09252 5.97504H3.03754Z" fill="white"/>
</svg>
