<svg width="42" height="49" viewBox="0 0 42 49" fill="none" xmlns="http://www.w3.org/2000/svg">
<rect y="0.388916" width="42" height="48.2222" rx="7" fill="white"/>
<path d="M11.5662 37.8037H10.1848C7.57697 37.8037 6.66528 37.8166 5.96663 37.9568C4.73111 38.2046 3.65704 38.7359 2.87394 39.4536C2.60986 39.6956 2.47782 39.8166 2.17327 40.5877C1.86872 41.3589 1.91696 41.6859 2.01343 42.34C2.03044 42.4554 2.04878 42.568 2.06853 42.678C2.33151 44.1428 2.81254 44.9184 3.55032 45.4709C4.2881 46.0233 5.32394 46.3835 7.28001 46.5805C9.29359 46.7832 11.9623 46.7863 15.7888 46.7863H26.4518C30.2783 46.7863 32.947 46.7832 34.9606 46.5805C36.9166 46.3835 37.9525 46.0233 38.6903 45.4709C39.428 44.9184 39.9091 44.1428 40.172 42.678C40.3929 41.4479 40.4364 39.8913 40.4449 37.8037H21.1924V42.3585C21.1924 42.9809 21.1924 43.2921 20.9642 43.4179C20.7359 43.5436 20.4237 43.4045 19.7993 43.1261L16.8098 41.7935C16.5986 41.6993 16.4929 41.6522 16.3793 41.6522C16.2657 41.6522 16.1601 41.6993 15.9488 41.7935L12.9593 43.1261C12.3349 43.4045 12.0227 43.5436 11.7945 43.4179C11.5662 43.2921 11.5662 42.9809 11.5662 42.3585V37.8037Z" fill="black"/>
<path opacity="0.5" d="M7.40531 2.13056C5.45676 2.37708 4.4249 2.828 3.68995 3.5196C2.955 4.2112 2.47583 5.1822 2.21385 7.01582C1.94417 8.90336 1.93994 11.405 1.93994 14.992V41.6217C1.93994 41.326 1.99855 41.0298 2.17327 40.5874C2.47782 39.8162 2.60986 39.6952 2.87394 39.4532C3.65704 38.7356 4.73111 38.2043 5.96663 37.9564C6.66528 37.8162 7.57697 37.8033 10.1848 37.8033H11.5646V42.358C11.5646 42.9804 11.5646 43.2916 11.7928 43.4174C12.0211 43.5432 12.3333 43.404 12.9577 43.1257L15.9472 41.793C16.1584 41.6988 16.2641 41.6518 16.3777 41.6518C16.4913 41.6518 16.5969 41.6988 16.8082 41.793L19.7977 43.1257C20.4221 43.404 20.7343 43.5432 20.9625 43.4174C21.1908 43.2916 21.1908 42.9804 21.1908 42.358V37.8033H40.4449L40.4449 14.992C40.4449 11.405 40.4407 8.90336 40.171 7.01582C39.909 5.1822 39.4299 4.2112 38.6949 3.5196C37.96 2.828 36.9281 2.37708 34.9796 2.13056C32.9737 1.87678 30.3152 1.8728 26.5035 1.8728H15.8814C12.0696 1.8728 9.41116 1.87678 7.40531 2.13056Z" fill="black"/>
<path d="M9.76074 13.1012C9.76074 12.1711 10.5688 11.417 11.5657 11.417H30.8182C31.815 11.417 32.6231 12.1711 32.6231 13.1012C32.6231 14.0314 31.815 14.7855 30.8182 14.7855H11.5657C10.5688 14.7855 9.76074 14.0314 9.76074 13.1012Z" fill="black"/>
<path d="M11.5657 19.2768C10.5688 19.2768 9.76074 20.0309 9.76074 20.961C9.76074 21.8912 10.5688 22.6453 11.5657 22.6453H23.5985C24.5953 22.6453 25.4034 21.8912 25.4034 20.961C25.4034 20.0309 24.5953 19.2768 23.5985 19.2768H11.5657Z" fill="black"/>
</svg>
