<svg width="48" height="48" viewBox="0 0 48 48" fill="none" xmlns="http://www.w3.org/2000/svg">
<g clip-path="url(#clip0_94_3)">
<path d="M48 0H0V48H48V0Z" fill="white"/>
<path d="M12.7724 41.2799C7.78337 41.2799 3.84461 38.0641 3.83984 33.7324H10.1009C10.0569 34.4598 10.0128 35.4908 10.0128 36.349C10.0128 39.5687 11.458 40.6847 13.122 40.6847C14.5672 40.6847 16.2311 39.7832 16.2311 36.4772C16.2311 32.9447 13.6518 30.4184 10.8935 27.8424C7.78436 24.9655 4.50037 22.0035 4.50037 17.5383C4.50037 13.1162 8.74781 10.6697 13.126 10.6697C17.8552 10.6697 21.4901 13.8044 21.4901 17.9256H15.6187C15.6627 17.2819 15.7068 16.4236 15.7068 15.6503C15.7068 12.3875 14.4804 11.2715 12.8605 11.2715C11.4153 11.2715 10.0142 12.0865 10.0142 15.3495C10.0142 18.7406 12.5563 21.3598 15.2251 23.9358C18.3329 26.8992 21.705 29.8611 21.705 33.9823C21.705 38.6189 17.3708 41.2799 12.7724 41.2799Z" fill="black"/>
<path d="M31.1501 32.1781V40.8508H25.2427V6.71997H31.1541V31.0622L41.7066 18.0969H42.578L36.9294 25.0518L45.1201 40.8495H38.8577L33.0769 29.7735L31.1501 32.1781Z" fill="black"/>
</g>
<defs>
<clipPath id="clip0_94_3">
<rect width="48" height="48" rx="11" fill="white"/>
</clipPath>
</defs>
</svg>
