<svg width="19" height="19" viewBox="0 0 19 19" fill="none" xmlns="http://www.w3.org/2000/svg">
<path fill-rule="evenodd" clip-rule="evenodd" d="M9.16009 0.5C4.0948 0.5 0 4.62498 0 9.72815C0 13.8074 2.62368 17.2604 6.26341 18.4825C6.71847 18.5744 6.88516 18.2839 6.88516 18.0396C6.88516 17.8257 6.87016 17.0924 6.87016 16.3283C4.32204 16.8784 3.79142 15.2283 3.79142 15.2283C3.38192 14.1588 2.77518 13.8839 2.77518 13.8839C1.94118 13.3186 2.83593 13.3186 2.83593 13.3186C3.76105 13.3797 4.24648 14.2658 4.24648 14.2658C5.06529 15.6713 6.38472 15.2742 6.91553 15.0297C6.99128 14.4338 7.2341 14.0213 7.49191 13.7922C5.4596 13.5783 3.32136 12.7838 3.32136 9.23915C3.32136 8.23078 3.68511 7.40578 4.26148 6.76416C4.17055 6.53504 3.85198 5.5876 4.35261 4.31955C4.35261 4.31955 5.12604 4.07505 6.86997 5.26679C7.61661 5.06479 8.38661 4.96203 9.16009 4.96117C9.93352 4.96117 10.722 5.06823 11.45 5.26679C13.1941 4.07505 13.9676 4.31955 13.9676 4.31955C14.4682 5.5876 14.1494 6.53504 14.0585 6.76416C14.6501 7.40578 14.9988 8.23078 14.9988 9.23915C14.9988 12.7838 12.8606 13.5629 10.8131 13.7922C11.1468 14.0824 11.4348 14.6324 11.4348 15.5033C11.4348 16.7408 11.4198 17.734 11.4198 18.0394C11.4198 18.2839 11.5867 18.5744 12.0416 18.4827C15.6813 17.2602 18.305 13.8074 18.305 9.72815C18.32 4.62498 14.2102 0.5 9.16009 0.5Z" fill="white"/>
</svg>
