<svg width="38" height="38" viewBox="0 0 38 38" fill="none" xmlns="http://www.w3.org/2000/svg">
<path fill-rule="evenodd" clip-rule="evenodd" d="M19.0157 0C8.50052 0 0 8.7083 0 19.4816C0 28.0934 5.44657 35.383 13.0024 37.963C13.9471 38.157 14.2931 37.5438 14.2931 37.0281C14.2931 36.5764 14.262 35.0283 14.262 33.4153C8.97227 34.5767 7.87074 31.093 7.87074 31.093C7.02064 28.8352 5.76108 28.2549 5.76108 28.2549C4.02976 27.0614 5.88719 27.0614 5.88719 27.0614C7.80768 27.1905 8.81541 29.0612 8.81541 29.0612C10.5152 32.0283 13.2543 31.19 14.3562 30.6738C14.5134 29.4158 15.0175 28.545 15.5527 28.0613C11.3338 27.6097 6.89492 25.9325 6.89492 18.4493C6.89492 16.3205 7.65004 14.5789 8.84655 13.2243C8.65777 12.7406 7.99646 10.7405 9.03572 8.06349C9.03572 8.06349 10.6413 7.54732 14.2616 10.0632C15.8116 9.63679 17.41 9.41985 19.0157 9.41802C20.6213 9.41802 22.2581 9.64404 23.7695 10.0632C27.3901 7.54732 28.9957 8.06349 28.9957 8.06349C30.035 10.7405 29.3733 12.7406 29.1845 13.2243C30.4125 14.5789 31.1365 16.3205 31.1365 18.4493C31.1365 25.9325 26.6977 27.5772 22.4472 28.0613C23.1401 28.674 23.7379 29.835 23.7379 31.6737C23.7379 34.2861 23.7068 36.3829 23.7068 37.0277C23.7068 37.5438 24.0532 38.157 24.9975 37.9634C32.5533 35.3826 37.9999 28.0934 37.9999 19.4816C38.0311 8.7083 29.4994 0 19.0157 0Z" fill="white"/>
</svg>
