<svg width="58" height="58" viewBox="0 0 58 58" fill="none" xmlns="http://www.w3.org/2000/svg">
<g clip-path="url(#clip0_303_3)">
<path d="M25.2475 20.311C26.9172 17.3157 27.752 15.8181 29.0002 15.8181C30.2483 15.8181 31.0832 17.3157 32.7528 20.311L33.1848 21.0859C33.6593 21.937 33.8965 22.3626 34.2664 22.6434C34.6363 22.9242 35.097 23.0284 36.0183 23.2369L36.8571 23.4267C40.0995 24.1603 41.7206 24.5271 42.1063 25.7674C42.492 27.0077 41.3868 28.3001 39.1764 30.8848L38.6046 31.5535C37.9764 32.2881 37.6624 32.6553 37.5211 33.1096C37.3798 33.564 37.4273 34.054 37.5222 35.034L37.6087 35.9262C37.9429 39.3748 38.11 41.0991 37.1002 41.8657C36.0904 42.6322 34.5726 41.9333 31.5368 40.5356L30.7514 40.1739C29.8887 39.7767 29.4574 39.5781 29.0002 39.5781C28.543 39.5781 28.1116 39.7767 27.249 40.1739L26.4636 40.5356C23.4278 41.9333 21.9099 42.6322 20.9001 41.8657C19.8904 41.0991 20.0575 39.3748 20.3917 35.9262L20.4781 35.034C20.5731 34.054 20.6206 33.564 20.4793 33.1096C20.338 32.6553 20.0239 32.2881 19.3958 31.5535L18.8239 30.8848C16.6136 28.3001 15.5084 27.0077 15.8941 25.7674C16.2797 24.5271 17.9009 24.1603 21.1432 23.4267L21.982 23.2369C22.9034 23.0284 23.3641 22.9242 23.734 22.6434C24.1039 22.3626 24.3411 21.937 24.8156 21.0859L25.2475 20.311Z" fill="white"/>
<path opacity="0.8" fill-rule="evenodd" clip-rule="evenodd" d="M29.0001 0.65918C30.0921 0.65918 30.9774 1.54443 30.9774 2.63645V7.90918C30.9774 9.0012 30.0921 9.88645 29.0001 9.88645C27.9081 9.88645 27.0228 9.0012 27.0228 7.90918V2.63645C27.0228 1.54443 27.9081 0.65918 29.0001 0.65918ZM0.65918 29.0001C0.65918 27.9081 1.54443 27.0228 2.63645 27.0228H7.90918C9.0012 27.0228 9.88645 27.9081 9.88645 29.0001C9.88645 30.0921 9.0012 30.9774 7.90918 30.9774H2.63645C1.54443 30.9774 0.65918 30.0921 0.65918 29.0001ZM48.1137 29.0001C48.1137 27.9081 48.999 27.0228 50.091 27.0228H55.3637C56.4557 27.0228 57.341 27.9081 57.341 29.0001C57.341 30.0921 56.4557 30.9774 55.3637 30.9774H50.091C48.999 30.9774 48.1137 30.0921 48.1137 29.0001ZM29.0001 48.1137C30.0921 48.1137 30.9774 48.999 30.9774 50.091V55.3637C30.9774 56.4557 30.0921 57.341 29.0001 57.341C27.9081 57.341 27.0228 56.4557 27.0228 55.3637V50.091C27.0228 48.999 27.9081 48.1137 29.0001 48.1137Z" fill="white"/>
<g opacity="0.5">
<path d="M46.2167 11.7837C46.9888 12.5559 46.9888 13.8078 46.2167 14.58L45.3117 15.485C44.5395 16.2571 43.2876 16.2571 42.5154 15.485C41.7433 14.7128 41.7433 13.4609 42.5154 12.6887L43.4204 11.7837C44.1926 11.0115 45.4445 11.0115 46.2167 11.7837Z" fill="white"/>
<path d="M11.7837 11.784C12.5559 11.0119 13.8078 11.0119 14.58 11.784L15.485 12.689C16.2571 13.4612 16.2571 14.7131 15.485 15.4853C14.7128 16.2574 13.4609 16.2574 12.6887 15.4853L11.7837 14.5803C11.0115 13.8081 11.0115 12.5562 11.7837 11.784Z" fill="white"/>
<path d="M15.4847 42.5157C16.2568 43.2879 16.2568 44.5398 15.4847 45.312L14.5803 46.2164C13.8081 46.9886 12.5562 46.9886 11.784 46.2164C11.0118 45.4442 11.0118 44.1923 11.784 43.4201L12.6884 42.5157C13.4606 41.7436 14.7125 41.7436 15.4847 42.5157Z" fill="white"/>
<path d="M42.5154 42.5163C43.2875 41.7441 44.5395 41.7441 45.3117 42.5163L46.216 43.4207C46.9882 44.1929 46.9882 45.4448 46.216 46.217C45.4439 46.9892 44.1919 46.9892 43.4198 46.217L42.5154 45.3126C41.7432 44.5404 41.7432 43.2885 42.5154 42.5163Z" fill="white"/>
</g>
</g>
<defs>
<clipPath id="clip0_303_3">
<rect width="58" height="58" rx="5" fill="white"/>
</clipPath>
</defs>
</svg>
