<svg width="26" height="26" viewBox="0 0 26 26" fill="none" xmlns="http://www.w3.org/2000/svg">
<path d="M25.0249 2.6C25.0249 4.03594 23.8609 5.2 22.4249 5.2C20.989 5.2 19.8249 4.03594 19.8249 2.6C19.8249 1.16406 20.989 0 22.4249 0C23.8609 0 25.0249 1.16406 25.0249 2.6Z" fill="white"/>
<path d="M12.4568 4.34905C13.3549 3.78775 14.4709 3.70181 15.4443 4.11899C17.6896 5.08125 18.0981 8.09008 16.1906 9.61608L15.6114 10.0794C15.5023 10.1667 15.4703 10.1925 15.4508 10.2094C14.6422 10.908 14.7163 12.1834 15.6004 12.7835C15.6215 12.7979 15.6635 12.8243 15.7991 12.9091L15.8113 12.9168C15.9014 12.973 15.9627 13.0114 16.0164 13.0469C17.3421 13.9248 18.1564 15.394 18.1982 16.9834C18.1999 17.0477 18.1999 17.1143 18.1999 17.211V18.85C18.1999 19.3885 17.7634 19.825 17.2249 19.825C16.6864 19.825 16.2499 19.3885 16.2499 18.85V17.2239C16.2499 17.1095 16.2498 17.0701 16.2489 17.0347C16.2238 16.081 15.7352 15.1995 14.9398 14.6728L14.8181 14.5955C14.8027 14.5859 14.7853 14.575 14.7656 14.5627L14.7438 14.5491C14.6391 14.4836 14.5615 14.4351 14.5052 14.3969C12.5602 13.0766 12.3971 10.2706 14.1759 8.73383C14.2275 8.68931 14.2918 8.6379 14.3767 8.56992L14.9724 8.09338C15.7296 7.48764 15.5675 6.29329 14.6762 5.91132C14.2898 5.74572 13.8468 5.77984 13.4903 6.00264L9.29166 8.6268C8.83503 8.91219 8.23351 8.77338 7.94811 8.31675C7.66272 7.86012 7.80153 7.25859 8.25816 6.9732L12.4568 4.34905Z" fill="white"/>
<path d="M0.97267 18.7753C1.37292 18.4151 1.9894 18.4475 2.34962 18.8478L3.915 20.5871C4.22317 20.9295 4.66219 21.125 5.12285 21.125H21.527C21.9876 21.125 22.4267 20.9295 22.7348 20.5871L24.3002 18.8478C24.6604 18.4475 25.2769 18.4151 25.6772 18.7753C26.0774 19.1355 26.1098 19.752 25.7496 20.1522L24.1842 21.8915C23.5063 22.6449 22.5404 23.075 21.527 23.075H5.12285C4.10939 23.075 3.14355 22.6449 2.46558 21.8915L0.900199 20.1522C0.539976 19.752 0.572423 19.1355 0.97267 18.7753Z" fill="white"/>
<path d="M8.12491 24.7002C8.12491 25.4182 7.54288 26.0002 6.82491 26.0002C6.10694 26.0002 5.52491 25.4182 5.52491 24.7002C5.52491 23.9823 6.10694 23.4002 6.82491 23.4002C7.54288 23.4002 8.12491 23.9823 8.12491 24.7002Z" fill="white"/>
<path d="M21.1249 24.7002C21.1249 25.4182 20.5429 26.0002 19.8249 26.0002C19.1069 26.0002 18.5249 25.4182 18.5249 24.7002C18.5249 23.9823 19.1069 23.4002 19.8249 23.4002C20.5429 23.4002 21.1249 23.9823 21.1249 24.7002Z" fill="white"/>
<path d="M18.229 10.1638C18.3596 9.64136 18.889 9.32374 19.4114 9.45434C20.9632 9.84229 22.5866 9.84229 24.1384 9.45434C24.6608 9.32374 25.1902 9.64136 25.3208 10.1638C25.4514 10.6862 25.1338 11.2155 24.6114 11.3461C22.7491 11.8117 20.8008 11.8117 18.9384 11.3461C18.416 11.2155 18.0984 10.6862 18.229 10.1638Z" fill="white"/>
<path d="M12.7143 14.9108C13.0951 15.2916 13.0951 15.9089 12.7143 16.2897C11.2829 17.7211 9.34152 18.5252 7.3172 18.5252H6.82491C6.28643 18.5252 5.84991 18.0887 5.84991 17.5502C5.84991 17.0118 6.28643 16.5752 6.82491 16.5752H7.3172C8.82435 16.5752 10.2698 15.9765 11.3355 14.9108C11.7162 14.53 12.3336 14.53 12.7143 14.9108Z" fill="white"/>
</svg>
